<svg width="127" height="66" viewBox="0 0 127 66" fill="none" xmlns="http://www.w3.org/2000/svg">
<path d="M9.76279 30L17.4128 12.5H23.2128L30.8628 30H24.7628L19.1128 15.3H21.4128L15.7628 30H9.76279ZM14.3128 26.95L15.8128 22.7H23.8628L25.3628 26.95H14.3128ZM47.8044 19.95H55.5044V24.4H47.8044V19.95ZM48.2044 30H42.3044V12.5H56.5294V16.95H48.2044V30ZM74.3933 30L66.9933 12.5H73.3433L79.3683 27.275H75.5933L81.7933 12.5H87.5933L80.1933 30H74.3933ZM96.1456 30L103.796 12.5H109.596L117.246 30H111.146L105.496 15.3H107.796L102.146 30H96.1456ZM100.696 26.95L102.196 22.7H110.246L111.746 26.95H100.696ZM24.9567 53V35.5H29.8067L36.8067 46.925H34.2567L41.0567 35.5H45.9067L45.9567 53H40.5817L40.5317 43.6H41.3817L36.7317 51.425H34.1317L29.2817 43.6H30.3317V53H24.9567ZM60.5093 53.4C59.0759 53.4 57.7509 53.175 56.5343 52.725C55.3343 52.275 54.2926 51.6417 53.4093 50.825C52.5259 49.9917 51.8343 49.0167 51.3343 47.9C50.8509 46.7833 50.6093 45.5667 50.6093 44.25C50.6093 42.9167 50.8509 41.7 51.3343 40.6C51.8343 39.4833 52.5259 38.5167 53.4093 37.7C54.2926 36.8667 55.3343 36.225 56.5343 35.775C57.7509 35.325 59.0676 35.1 60.4843 35.1C61.9176 35.1 63.2343 35.325 64.4343 35.775C65.6343 36.225 66.6759 36.8667 67.5593 37.7C68.4426 38.5167 69.1259 39.4833 69.6093 40.6C70.1093 41.7 70.3593 42.9167 70.3593 44.25C70.3593 45.5667 70.1093 46.7833 69.6093 47.9C69.1259 49.0167 68.4426 49.9917 67.5593 50.825C66.6759 51.6417 65.6343 52.275 64.4343 52.725C63.2343 53.175 61.9259 53.4 60.5093 53.4ZM60.4843 48.625C61.0343 48.625 61.5426 48.525 62.0093 48.325C62.4926 48.125 62.9093 47.8417 63.2593 47.475C63.6259 47.0917 63.9093 46.6333 64.1093 46.1C64.3093 45.55 64.4093 44.9333 64.4093 44.25C64.4093 43.5667 64.3093 42.9583 64.1093 42.425C63.9093 41.875 63.6259 41.4167 63.2593 41.05C62.9093 40.6667 62.4926 40.375 62.0093 40.175C61.5426 39.975 61.0343 39.875 60.4843 39.875C59.9343 39.875 59.4176 39.975 58.9343 40.175C58.4676 40.375 58.0509 40.6667 57.6843 41.05C57.3343 41.4167 57.0593 41.875 56.8593 42.425C56.6593 42.9583 56.5593 43.5667 56.5593 44.25C56.5593 44.9333 56.6593 45.55 56.8593 46.1C57.0593 46.6333 57.3343 47.0917 57.6843 47.475C58.0509 47.8417 58.4676 48.125 58.9343 48.325C59.4176 48.525 59.9343 48.625 60.4843 48.625ZM79.8659 53L72.4659 35.5H78.8159L84.8409 50.275H81.0659L87.2659 35.5H93.0659L85.6659 53H79.8659ZM96.153 53V35.5H102.053V53H96.153Z" fill="white"/>
</svg>
