<svg width="96" height="41" viewBox="0 0 96 41" fill="none" xmlns="http://www.w3.org/2000/svg">
<path d="M53.3238 18.1362H87.0833C89.4473 18.1362 91.7145 17.2005 93.3866 15.535C95.0586 13.8694 95.9987 11.6103 96 9.25417C96 6.89719 95.0606 4.63674 93.3884 2.9701C91.7161 1.30346 89.4481 0.367149 87.0833 0.367149H53.3238C50.9589 0.367149 48.6909 1.30346 47.0187 2.9701C45.3465 4.63674 44.4071 6.89719 44.4071 9.25417C44.4084 11.6103 45.3484 13.8694 47.0205 15.535C48.6926 17.2005 50.9598 18.1362 53.3238 18.1362ZM8.91674 40.7686H47.7225C50.0864 40.7686 52.3537 39.833 54.0258 38.1675C55.6978 36.5019 56.6379 34.2428 56.6392 31.8867C56.6392 29.5297 55.6998 27.2692 54.0275 25.6026C52.3553 23.9359 50.0873 22.9996 47.7225 22.9996H8.91674C6.55187 22.9996 4.28386 23.9359 2.61165 25.6026C0.939439 27.2692 0 29.5297 0 31.8867C0.00133786 34.2428 0.941368 36.5019 2.61344 38.1675C4.2855 39.833 6.55275 40.7686 8.91674 40.7686ZM5.25315 17.8143H9.18923V3.48037H14.286V0H0.156434V3.47031H5.25315V17.8143ZM19.4331 17.8143H23.3692V4.14929H23.4197L27.9613 17.8042H30.9891L35.6821 4.14929H35.7325V17.8042H39.6686V0H33.6888L29.5509 11.618H29.5004L25.3877 0H19.4331V17.8143ZM76.9201 27.9989C76.3937 26.9049 75.6115 25.9528 74.6392 25.2226C73.6304 24.4874 72.4843 23.9607 71.2683 23.6736C69.9363 23.3419 68.5688 23.173 67.196 23.1706H61.2918V40.9749H67.7258C69.0183 40.9811 70.3038 40.7859 71.5357 40.3965C72.6989 40.0437 73.7857 39.4774 74.7401 38.7267C75.6685 37.9757 76.4211 37.0316 76.9453 35.9605C77.5121 34.7704 77.7936 33.4653 77.7679 32.1482C77.809 30.7185 77.5189 29.2987 76.9201 27.9989ZM73.1707 34.502C72.8755 35.1731 72.4178 35.7607 71.8385 36.212C71.2365 36.653 70.5491 36.9647 69.82 37.1273C68.9927 37.3173 68.1459 37.4101 67.2969 37.4039H65.2532V26.8421H67.5744C68.3709 26.8382 69.1641 26.9448 69.931 27.159C70.6366 27.3486 71.3006 27.6675 71.889 28.0995C72.4285 28.5226 72.8663 29.0604 73.1707 29.6737C73.5174 30.3809 73.6904 31.1601 73.6754 31.947C73.6975 32.8253 73.5252 33.6976 73.1707 34.502ZM95.6922 34.4366C95.5139 33.9503 95.2432 33.5029 94.8949 33.1189C94.5483 32.737 94.1344 32.4216 93.6737 32.1884C93.1713 31.9356 92.631 31.7658 92.074 31.6855V31.6352C92.9395 31.3875 93.7144 30.8948 94.3045 30.2169C94.8861 29.5102 95.1877 28.6155 95.1522 27.7022C95.19 26.883 94.9884 26.0706 94.5719 25.3635C94.1918 24.7869 93.6709 24.3162 93.058 23.9955C92.3987 23.6561 91.6848 23.4348 90.9487 23.3416C90.1765 23.2317 89.3974 23.1762 88.6173 23.1757H81.9563V40.9799H89.2733C90.074 40.9803 90.8724 40.896 91.6552 40.7284C92.4173 40.5763 93.1477 40.2957 93.815 39.8986C94.4465 39.523 94.982 39.0065 95.3793 38.3897C95.8048 37.6798 96.0151 36.8623 95.9849 36.0359C95.9856 35.4909 95.8917 34.9497 95.7073 34.4366H95.6922ZM85.8923 26.5152H88.5669C88.8802 26.5164 89.1927 26.5467 89.5004 26.6057C89.7988 26.6592 90.0878 26.7558 90.3583 26.8924C90.6077 27.028 90.8192 27.2233 90.9739 27.4607C91.1443 27.735 91.2287 28.0537 91.2161 28.3761C91.2235 28.6915 91.1488 29.0034 90.9992 29.2814C90.8631 29.5256 90.669 29.7328 90.434 29.8849C90.1894 30.0394 89.9195 30.1501 89.6367 30.2118C89.344 30.2806 89.0442 30.3143 88.7435 30.3124H85.8923V26.5152ZM91.8066 36.5741C91.6547 36.8365 91.444 37.0603 91.1909 37.2279C90.9344 37.3999 90.6463 37.5196 90.3431 37.58C90.0417 37.6477 89.7337 37.6814 89.4247 37.6806H85.8923V33.657H88.8696C89.2073 33.6602 89.5445 33.6854 89.8789 33.7325C90.234 33.7811 90.5816 33.874 90.9134 34.0091C91.2228 34.1382 91.4951 34.3422 91.7056 34.6026C91.9252 34.8911 92.0376 35.2466 92.0236 35.6084C92.0397 35.9439 91.9648 36.2775 91.8066 36.5741Z" fill="url(#paint0_linear_8_146)"/>
<defs>
<linearGradient id="paint0_linear_8_146" x1="0" y1="20.5" x2="96" y2="20.5" gradientUnits="userSpaceOnUse">
<stop stop-color="#90CEA1"/>
<stop offset="0.56" stop-color="#3CBEC9"/>
<stop offset="1" stop-color="#00B3E5"/>
</linearGradient>
</defs>
</svg>
